<?xml version="1.0" encoding="utf-8"?>
<!-- Generator: Adobe Illustrator 25.2.3, SVG Export Plug-In . SVG Version: 6.00 Build 0)  -->
<svg version="1.1" id="Layer_1" xmlns="http://www.w3.org/2000/svg" xmlns:xlink="http://www.w3.org/1999/xlink" x="0px" y="0px"
	 viewBox="0 0 256 256" enable-background="new 0 0 256 256" xml:space="preserve">
<polygon fill="#CCCCCC" points="11.7607,35.1179 11.7607,223.8195 153.7094,252.8492 244.2393,196.4636 244.2393,66.3795 
	153.7094,2.735 "/>
<path fill="#B3B3B3" d="M154.3111,0L9.0256,33.1432v193.1432L154.3111,256l92.6633-57.7149V65.1432L154.3111,0z M239.2506,191.453
	l-85.2239,45.1173L27.0441,214.2851V44.0014L154.601,18.839l84.655,51.9986L239.2506,191.453z"/>
<path fill="#FFFFFF" d="M143.081,91.799h-24.9326c-3.441,0-6.2304-2.7895-6.2304-6.2304V60.6359
	c0-3.441,2.7895-6.2304,6.2304-6.2304h24.9272c3.441,0,6.2304,2.7895,6.2304,6.2304c0,0,0,0,0,0v24.9326
	c0,3.441-2.7894,6.2304-6.2304,6.2304 M93.2157,191.5296L93.2157,191.5296c3.441,0,6.2304-2.7895,6.2304-6.2304v-24.9326l0,0
	c0-3.441-2.7895-6.2304-6.2304-6.2304H68.2885c0,0,0,0,0,0c-3.441,0-6.2304,2.7895-6.2304,6.2304v24.9326l0,0
	c0,3.441,2.7895,6.2304,6.2304,6.2304h24.9327 M143.0756,191.5296L143.0756,191.5296c3.441,0,6.2304-2.7895,6.2304-6.2304v-24.9326
	v0c0-3.441-2.7895-6.2304-6.2304-6.2304h-24.9272h0c-3.441,0-6.2304,2.7895-6.2304,6.2304v24.9326l0,0
	c0,3.441,2.7895,6.2304,6.2304,6.2304h24.9326 M192.9354,191.5296L192.9354,191.5296c3.441,0,6.2304-2.7895,6.2304-6.2304v-24.9326
	v0c0-3.441-2.7895-6.2304-6.2304-6.2304h-24.9272h0c-3.441,0-6.2304,2.7895-6.2304,6.2304v24.9326v0
	c0,3.441,2.7895,6.2304,6.2304,6.2304H192.9354 M185.1624,146.3412v-23.3737c0-0.0037,0-0.0073,0-0.011
	c-0.009-2.586-2.1128-4.675-4.6988-4.666h-45.1829V99.5938h-9.3484v18.6967H80.7494c-2.5809,0.003-4.6715,2.0961-4.6714,4.6769
	v23.3682h9.3484V127.639h40.5115v18.6968h9.3484V127.639h40.5114v18.7022H185.1624z"/>
</svg>
