<?xml version="1.0" encoding="utf-8"?>
<!-- Generator: Adobe Illustrator 21.0.2, SVG Export Plug-In . SVG Version: 6.00 Build 0)  -->
<svg version="1.1" id="Layer_1" xmlns="http://www.w3.org/2000/svg" xmlns:xlink="http://www.w3.org/1999/xlink" x="0px" y="0px"
	 viewBox="0 0 24 24">
    <style type="text/css">
        .workflow-accent{fill:#1e8385;}
        .workflow-highlight{fill:#fff;}
        .workflow-background{fill:#fff;}
    </style>

    <title>workflow-icon</title>
    <g id="Layer_2">
        <path
            class="workflow-accent"
            d="M1.1026 3.2923v17.6908l13.3077 2.7215 8.4871-5.2861V6.2231L14.4103.2564z"
        />
        <path
            class="workflow-highlight"
            d="M14.4667 0L.8462 3.1072v18.1072L14.4667 24l8.6872-5.4108V6.1072L14.4667 0zm7.963 17.9487L14.44 22.1785 2.5354 20.0892V4.1251l11.9585-2.359 7.9364 4.8749-.0006 11.3077z"
        />
        <path
            class="workflow-background"
            d="M13.4138 8.6062h-2.3374a.584.584 0 01-.5841-.5841V5.6846a.584.584 0 01.5841-.5841h2.3369a.584.584 0 01.5841.5841V8.022a.584.584 0 01-.5841.5841M8.739 17.9559a.584.584 0 00.5841-.5841v-2.3374a.584.584 0 00-.5841-.5841H6.4021a.584.584 0 00-.5841.5841v2.3374a.584.584 0 00.5841.5841h2.3374m4.6738 0a.584.584 0 00.5841-.5841v-2.3374a.584.584 0 00-.5841-.5841h-2.3369a.584.584 0 00-.5841.5841v2.3374a.584.584 0 00.5841.5841h2.3374m4.6739 0a.584.584 0 00.5841-.5841v-2.3374a.584.584 0 00-.5841-.5841h-2.3369a.584.584 0 00-.5841.5841v2.3374a.584.584 0 00.5841.5841h2.3369m-.7287-4.2364v-2.1913-.001a.439.439 0 00-.4405-.4374h-4.2359V9.3369h-.8764v1.7528H7.5703a.4384.4384 0 00-.4379.4385v2.1908h.8764v-1.7528h3.7979v1.7528h.8764v-1.7528h3.7979v1.7533h.878z"
        />
    </g>
</svg>